<mxfile host="app.diagrams.net" modified="2022-10-03T08:13:21.978Z" agent="5.0 (Windows NT 10.0; Win64; x64) AppleWebKit/537.36 (KHTML, like Gecko) Chrome/105.0.0.0 Safari/537.36 Edg/105.0.1343.53" etag="skgFOoU4QrODQvDSKNYG" version="20.4.0" type="github">
  <diagram id="65x4nwKG6fhVN2QxCXNh" name="Page-1">
    <mxGraphModel dx="812" dy="431" grid="1" gridSize="10" guides="1" tooltips="1" connect="1" arrows="1" fold="1" page="1" pageScale="1" pageWidth="850" pageHeight="1100" math="0" shadow="0">
      <root>
        <mxCell id="0" />
        <mxCell id="1" parent="0" />
        <mxCell id="1dRsd2bOPpmGZ0NdiKAQ-2" style="edgeStyle=orthogonalEdgeStyle;rounded=0;orthogonalLoop=1;jettySize=auto;html=1;" edge="1" parent="1" source="1dRsd2bOPpmGZ0NdiKAQ-1" target="1dRsd2bOPpmGZ0NdiKAQ-3">
          <mxGeometry relative="1" as="geometry">
            <mxPoint x="425" y="150" as="targetPoint" />
          </mxGeometry>
        </mxCell>
        <mxCell id="1dRsd2bOPpmGZ0NdiKAQ-1" value="" style="ellipse;whiteSpace=wrap;html=1;aspect=fixed;strokeColor=default;fillColor=#919191;" vertex="1" parent="1">
          <mxGeometry x="405" y="80" width="40" height="40" as="geometry" />
        </mxCell>
        <mxCell id="1dRsd2bOPpmGZ0NdiKAQ-4" style="edgeStyle=orthogonalEdgeStyle;rounded=0;orthogonalLoop=1;jettySize=auto;html=1;" edge="1" parent="1" source="1dRsd2bOPpmGZ0NdiKAQ-3">
          <mxGeometry relative="1" as="geometry">
            <mxPoint x="426" y="210" as="targetPoint" />
          </mxGeometry>
        </mxCell>
        <mxCell id="1dRsd2bOPpmGZ0NdiKAQ-3" value="Read len_inch&lt;br&gt;" style="shape=parallelogram;perimeter=parallelogramPerimeter;whiteSpace=wrap;html=1;fixedSize=1;strokeColor=default;fillColor=#FCFCFC;" vertex="1" parent="1">
          <mxGeometry x="359" y="150" width="133" height="30" as="geometry" />
        </mxCell>
        <mxCell id="1dRsd2bOPpmGZ0NdiKAQ-6" style="edgeStyle=orthogonalEdgeStyle;rounded=0;orthogonalLoop=1;jettySize=auto;html=1;" edge="1" parent="1" source="1dRsd2bOPpmGZ0NdiKAQ-5">
          <mxGeometry relative="1" as="geometry">
            <mxPoint x="425" y="270" as="targetPoint" />
          </mxGeometry>
        </mxCell>
        <mxCell id="1dRsd2bOPpmGZ0NdiKAQ-5" value="len_mm = len_inch * 25.4" style="rounded=1;whiteSpace=wrap;html=1;strokeColor=default;fillColor=#FCFCFC;" vertex="1" parent="1">
          <mxGeometry x="343" y="210" width="165" height="30" as="geometry" />
        </mxCell>
        <mxCell id="1dRsd2bOPpmGZ0NdiKAQ-9" style="edgeStyle=orthogonalEdgeStyle;rounded=0;orthogonalLoop=1;jettySize=auto;html=1;" edge="1" parent="1" source="1dRsd2bOPpmGZ0NdiKAQ-8">
          <mxGeometry relative="1" as="geometry">
            <mxPoint x="425" y="340" as="targetPoint" />
          </mxGeometry>
        </mxCell>
        <mxCell id="1dRsd2bOPpmGZ0NdiKAQ-8" value="print len_mm" style="rounded=1;whiteSpace=wrap;html=1;strokeColor=default;fillColor=#FCFCFC;" vertex="1" parent="1">
          <mxGeometry x="370" y="270" width="110" height="30" as="geometry" />
        </mxCell>
        <mxCell id="1dRsd2bOPpmGZ0NdiKAQ-10" value="" style="ellipse;whiteSpace=wrap;html=1;aspect=fixed;strokeColor=none;fillColor=#919191;" vertex="1" parent="1">
          <mxGeometry x="405" y="340" width="40" height="40" as="geometry" />
        </mxCell>
      </root>
    </mxGraphModel>
  </diagram>
</mxfile>
